<svg xmlns="http://www.w3.org/2000/svg" xmlns:xlink="http://www.w3.org/1999/xlink" width="208.564" height="45.462" viewBox="0 0 208.564 45.462">
  <defs>
    <clipPath id="clip-path">
      <rect id="Rectangle_3" data-name="Rectangle 3" width="208.564" height="45.462" fill="#fff"/>
    </clipPath>
  </defs>
  <g id="Group_119" data-name="Group 119" transform="translate(0 0)">
    <g id="Group_1" data-name="Group 1" transform="translate(0 0)" clip-path="url(#clip-path)">
      <path id="Path_1" data-name="Path 1" d="M43.414,13.495c-1.324,0-2.548.024-3.768-.023-.213-.008-.477-.282-.61-.5A15.792,15.792,0,0,0,35.3,8.591a41.42,41.42,0,0,0-4.552-3.135A11.24,11.24,0,0,0,27.48,4.329,24.42,24.42,0,0,0,23,3.729a18.183,18.183,0,0,0-9.62,2.428,19.058,19.058,0,0,0-7.008,6.914,18.4,18.4,0,0,0-2.641,8.818A18.406,18.406,0,0,0,7.409,33.93a18.674,18.674,0,0,0,4.657,4.5,18.121,18.121,0,0,0,7.771,3.055A20.66,20.66,0,0,0,27.2,41.2a17.315,17.315,0,0,0,5.831-2.457,18.793,18.793,0,0,0,5.428-5.379,1,1,0,0,1,.686-.42c1.227-.042,2.456-.019,3.826-.019a21.324,21.324,0,0,1-4.961,6.607,22.174,22.174,0,0,1-16.578,5.883A22.525,22.525,0,0,1,.115,25.121a22.688,22.688,0,0,1,43.3-11.626" transform="translate(0 0)" fill="#fff"/>
      <path id="Path_2" data-name="Path 2" d="M37.576,40.749c.125-.6.238-1.193.376-1.786.473-2.028.954-4.053,1.43-6.081.18-.767.333-1.542.538-2.3.168-.621.493-1.131,1.235-1.137,1.365-.011,2.731-.038,4.094.01a.966.966,0,0,1,1,1.029c.024.658.111,1.314.138,1.972.106,2.616.2,5.233.3,7.85q.083,2.164.175,4.329c.013.311.046.62.074.992H43.462c-.057-.985-.133-1.976-.168-2.968-.117-3.279-.218-6.559-.332-9.838a4.221,4.221,0,0,0-.17-.66,4.345,4.345,0,0,0-.325.657c-.67,2.786-1.33,5.574-2,8.361-.1.425-.22.847-.358,1.261a1.321,1.321,0,0,1-1.473,1.037c-.734-.051-1.474-.01-2.212-.011-1.043,0-1.435-.243-1.675-1.222-.626-2.551-1.2-5.114-1.815-7.668-.178-.736-.425-1.456-.64-2.183l-.287.016c-.159,4.383-.319,8.766-.481,13.234H27.993c.127-2.1.275-4.206.374-6.318.06-1.275.019-2.555.065-3.832.06-1.64.194-3.277.232-4.917a1.125,1.125,0,0,1,1.106-1.215c1.366-.06,2.739.037,4.108.091a1.087,1.087,0,0,1,1.036.962q.878,3.646,1.735,7.3c.22.941.4,1.892.609,2.837a.988.988,0,0,0,.137.247l.182-.045" transform="translate(-14.142 -14.822)" fill="#fff"/>
      <path id="Path_3" data-name="Path 3" d="M343.069,33.27q-.531,2.511-1.062,5.021-.49,2.336-.969,4.675c-.039.19-.077.381-.1.573-.131,1.152-.624,1.6-1.77,1.607-.688,0-1.377.006-2.065,0-.871-.01-1.218-.323-1.413-1.193-.45-2.011-.93-4.015-1.368-6.029-.322-1.48-.6-2.971-.9-4.456a.443.443,0,0,0-.234-.3c-.138,4.123-.276,8.247-.416,12.416-1.031,0-2.036.006-3.041,0-.32,0-.538-.1-.344-.5a1.108,1.108,0,0,0,.043-.435c.052-2.034.084-4.068.156-6.1.086-2.424.209-4.846.308-7.269a1.019,1.019,0,0,1,1.107-1.023c1.226-.053,2.455-.032,3.682-.005a1.163,1.163,0,0,1,1.265,1.122c.251,1.478.677,2.925.964,4.4.394,2.025.726,4.062,1.09,6.093a.661.661,0,0,0,.289.422c.05-.3.092-.6.153-.9.306-1.489.625-2.976.922-4.468.2-1,.357-2,.55-3a18.928,18.928,0,0,1,.652-2.931,1.63,1.63,0,0,1,1.22-.713c1.22-.1,2.453-.038,3.681-.031a1.016,1.016,0,0,1,1.075,1.067c.033.611.076,1.221.1,1.833.082,2.2.14,4.408.239,6.611.086,1.921.214,3.841.327,5.8h-3.45q-.261-6.142-.521-12.268l-.174-.024" transform="translate(-166.371 -15.269)" fill="#fff"/>
      <path id="Path_4" data-name="Path 4" d="M401.624,45.414c-1.692,0-3.383,0-5.074,0-.437,0-.6-.135-.567-.669.084-1.3.035-2.6.036-3.907,0-3.418.014-6.835-.006-10.252,0-.533.1-.659.676-.661,1.465-.006,2.928-.168,4.393-.22a11.262,11.262,0,0,1,4.468.565,4.047,4.047,0,0,1,2.546,2.992,14.881,14.881,0,0,1,.505,3.455c0,2.1.148,4.26-.806,6.234a3.88,3.88,0,0,1-2.873,2.223c-1.088.2-2.18.386-3.27.579q-.014-.168-.028-.335M399.584,37.6c0,1.449.009,2.9-.006,4.347,0,.429.079.726.584.722.762-.005,1.525.035,2.284-.014a2.413,2.413,0,0,0,2.139-1.669,20.334,20.334,0,0,0,.152-5.692c-.2-1.7-.891-2.788-2.8-2.669a15,15,0,0,1-1.694,0c-.524-.026-.679.2-.67.7.024,1.424.008,2.849.009,4.274" transform="translate(-200.047 -14.998)" fill="#fff"/>
      <path id="Path_5" data-name="Path 5" d="M380.718,33.039c-2.18,0-4.156-.018-6.132.013a.74.74,0,0,0-.826.858c.041.757.009,1.517.009,2.357,1.6,0,3.166,0,4.728,0a3.347,3.347,0,0,1,.806,0c.2.051.5.251.5.394.026.743-.028,1.489-.055,2.273h-5.975c0,1.089-.055,2.14.026,3.18.034.444.439.681.963.673,1.7-.025,3.391-.009,5.087-.009h.771c.049.879.094,1.7.144,2.618a3.8,3.8,0,0,1-.747.16c-1.986.06-3.973.134-5.959.13a6.194,6.194,0,0,1-2.156-.339,2.95,2.95,0,0,1-1.791-3.057c-.036-3-.1-5.994-.03-8.989a2.9,2.9,0,0,1,2.842-3.069c2.466-.073,4.938,0,7.406.048.132,0,.361.294.37.46.04.759.018,1.521.018,2.3" transform="translate(-186.949 -15.258)" fill="#fff"/>
      <path id="Path_6" data-name="Path 6" d="M167.721,37.515c.2,4.51-3.721,7.936-7.767,8.067a8.151,8.151,0,1,1-.025-16.29c4.017.1,8.141,3.639,7.792,8.223m-8.174,5.711a5.741,5.741,0,0,0,5.9-5.988,6.1,6.1,0,0,0-5.5-5.691A5.979,5.979,0,0,0,153.832,37c-.305,3.351,2.668,6.508,5.715,6.23" transform="translate(-76.523 -14.797)" fill="#fff"/>
      <path id="Path_7" data-name="Path 7" d="M244.131,40.467V38.751c0-2.656.013-5.312,0-7.967,0-.623.106-.932.841-.741a6.328,6.328,0,0,0,1.468.02c.012.166.044.4.044.627,0,4.648.007,9.3-.014,13.943a3.211,3.211,0,0,1-.323.952,3.207,3.207,0,0,1-1.011-.521c-1.692-1.925-3.325-3.9-5.011-5.831-1.159-1.326-2.375-2.6-3.621-3.961-.02.207-.051.379-.052.55q-.005,4.5,0,9c0,.465.042.745-.691.706-1.659-.088-1.66,0-1.665-1.608-.013-4.375-.035-8.75-.031-13.125,0-.26.142-.681.314-.738a.942.942,0,0,1,.809.243c1.237,1.342,2.437,2.718,3.641,4.091,1.721,1.961,3.435,3.928,5.311,6.075" transform="translate(-118.244 -15.149)" fill="#fff"/>
      <path id="Path_8" data-name="Path 8" d="M190.785,39.953c.175.447.332.873.507,1.29a3.9,3.9,0,0,0,3.211,2.292,6.54,6.54,0,0,0,3.659-.276,2.237,2.237,0,0,0,1.5-2.371c-.023-.617-.815-1.309-1.624-1.507-1.955-.477-3.947-.862-5.845-1.514a3.938,3.938,0,0,1-2.165-5.71,5.4,5.4,0,0,1,5.075-2.809,7.8,7.8,0,0,1,4.3.87,5.985,5.985,0,0,1,2.3,2.7.652.652,0,0,1-.117.6c-.458.418-.967.78-1.41,1.126-.584-.782-1.074-1.562-1.686-2.23-1.187-1.3-4.769-1.521-6.268.292a2.076,2.076,0,0,0,.978,3.125c1.481.428,3,.731,4.505,1.065a7.064,7.064,0,0,1,3.144,1.434,3.76,3.76,0,0,1,1.1,3.113c.008,2.331-2.719,4.128-4.866,4.312a10.4,10.4,0,0,1-4.6-.476,6.024,6.024,0,0,1-3.407-3.237.77.77,0,0,1,.349-1.056,13.115,13.115,0,0,0,1.356-1.033" transform="translate(-95.478 -14.826)" fill="#fff"/>
      <path id="Path_9" data-name="Path 9" d="M297.606,39.789a4.465,4.465,0,0,0,2.037,3.138,5.92,5.92,0,0,0,2.045.607,5.168,5.168,0,0,0,3.96-.769,1.821,1.821,0,0,0,.774-1.938,1.607,1.607,0,0,0-1.287-1.4c-1.538-.343-3.083-.687-4.582-1.164a12.33,12.33,0,0,1-3.019-1.377c-1.159-.762-1.5-3.266-.868-4.514a5.248,5.248,0,0,1,3.941-2.995c2.433-.355,4.94-.314,6.8,1.747a15.383,15.383,0,0,1,1.354,2.093l-1.906,1.434a4.515,4.515,0,0,0-2.39-2.872,5.581,5.581,0,0,0-3.713-.221,2.757,2.757,0,0,0-1.65,1.071,1.979,1.979,0,0,0,.856,3.089c1.505.459,3.081.68,4.6,1.114,1.375.394,2.814.762,3.654,2.105a4.2,4.2,0,0,1-.487,4.884c-1.6,1.774-3.722,2.043-5.914,1.912a6.724,6.724,0,0,1-4.58-1.873,9.542,9.542,0,0,1-1.327-1.891c-.213-.365-.16-.71.337-.98a8.357,8.357,0,0,0,1.373-1.2" transform="translate(-149.426 -14.757)" fill="#fff"/>
      <path id="Path_10" data-name="Path 10" d="M131.381,40.873a9.193,9.193,0,0,1,1.3.9.857.857,0,0,1,.135.813,8.09,8.09,0,0,1-5.383,2.863,8.855,8.855,0,0,1-6.008-1.188,7.746,7.746,0,0,1-3.621-6.112,7.88,7.88,0,0,1,2.714-6.872,7.4,7.4,0,0,1,4.246-1.892A8.5,8.5,0,0,1,130.7,30.53a16.74,16.74,0,0,1,2.087,1.854c.3.29.3.582-.108.885-1.221.905-1.226.946-2.308-.061a6.087,6.087,0,0,0-6.752-1.146,5.108,5.108,0,0,0-2.647,2.394,5.771,5.771,0,0,0-.162,5.735,6.138,6.138,0,0,0,8.977,2.013c.55-.378,1.03-.857,1.592-1.331" transform="translate(-59.492 -14.799)" fill="#fff"/>
      <path id="Path_11" data-name="Path 11" d="M275.351,29.668c.672,0,1.238-.033,1.8.021a.623.623,0,0,1,.424.429c.026,3.143.018,6.285.025,9.428a6.6,6.6,0,0,1-1.4,4.517,6.115,6.115,0,0,1-5.031,1.9,9.052,9.052,0,0,1-2.3-.368,4.818,4.818,0,0,1-3.68-3.878,15.9,15.9,0,0,1-.282-3.122c-.025-2.7.013-5.4.034-8.1,0-.266.055-.532.084-.8h2.189v1.644c0,2.753.047,5.508-.019,8.259a4.377,4.377,0,0,0,1.517,3.6,3.131,3.131,0,0,0,1.447.54,5.094,5.094,0,0,0,3.345-.371,3.467,3.467,0,0,0,1.837-3.309c.027-3.22.01-6.44.011-9.661v-.737" transform="translate(-133.825 -14.983)" fill="#fff"/>
      <path id="Path_12" data-name="Path 12" d="M221.825,30.1c.639-.039,1.168-.063,1.7-.105.4-.033.675.041.644.542-.051.806-.1,1.613-.1,2.42-.011,3.269,0,6.538,0,9.807v2.809c-.623,0-1.3.025-1.968-.022-.128-.009-.339-.3-.338-.466.01-4.737.043-9.474.072-14.211,0-.267,0-.534,0-.772" transform="translate(-112.029 -15.147)" fill="#fff"/>
    </g>
  </g>
</svg>
