<svg xmlns="http://www.w3.org/2000/svg" width="659.481" height="674.591" viewBox="0 0 659.481 674.591">
  <g id="Group_5" data-name="Group 5" transform="translate(25.516 25.519)" opacity="0.11">
    <g id="Group_4" data-name="Group 4" transform="translate(0 0)">
      <path id="Path_1" data-name="Path 1" d="M608.581,185.1c-18.562,0-35.715.333-52.827-.319-2.982-.115-6.687-3.862-8.546-6.834-14.226-22.756-30.721-43.809-52.306-60.1-20.441-15.426-41.5-30.4-63.814-42.994-13.789-7.778-30.11-12.209-45.87-15.467-20.622-4.262-41.77-7.784-62.766-8.232-47.8-1.018-93.106,9.8-134.855,33.31-41.208,23.218-73.885,54.661-98.238,94.832-22.716,37.456-35.278,77.431-37.026,120.948-2.455,61.013,14.282,115.912,51.53,165.15,18.36,24.263,39.53,44.861,65.284,61.726,33.384,21.86,69.092,36.717,108.934,41.9,34.619,4.506,69.078,3.638,103.156-3.943,29.223-6.5,57.308-17.6,81.744-33.7,29.694-19.56,56.316-43.612,76.1-73.773,1.866-2.844,6.284-5.64,9.614-5.755,17.2-.57,34.425-.265,53.631-.265-17.785,35.332-40.751,65.547-69.55,90.624-66.026,57.5-144.4,86.159-232.4,80.688C135.159,612.631,15.564,489.993,1.608,344.559c-17.958-187.2,117.376-316,260.825-339.782C438.649-24.44,567.067,85.913,608.581,185.1" transform="translate(0 0)" fill="#fff" stroke="#fff" stroke-width="3"/>
      <path id="Path_13" data-name="Path 13" d="M170.957,219.456c1.86-9.918,3.558-19.886,5.61-29.755,7.05-33.787,14.232-67.541,21.333-101.32,2.687-12.788,4.975-25.7,8.031-38.379,2.5-10.347,7.352-18.848,18.418-18.946,20.359-.181,40.74-.635,61.07.165,8.659.338,14.491,6.142,14.845,17.149.354,10.966,1.654,21.9,2.052,32.864,1.587,43.59,2.96,87.2,4.451,130.8q1.24,36.063,2.613,72.134c.2,5.178.679,10.331,1.107,16.523H258.771c-.849-16.415-1.978-32.921-2.5-49.452-1.75-54.638-3.248-109.284-4.946-163.923-.074-2.449-1.085-4.856-2.539-11-2.635,5.862-4.259,8.261-4.842,10.949q-14.993,69.627-29.8,139.312c-1.521,7.074-3.285,14.107-5.344,21.008-3.492,11.642-9.973,18.2-21.968,17.273-10.947-.849-21.99-.165-33-.181-15.561-.033-21.407-4.057-24.987-20.356-9.338-42.5-17.9-85.218-27.076-127.769-2.65-12.268-6.341-24.256-9.552-36.376-1.432.091-2.857.181-4.289.264-2.377,73.032-4.754,146.064-7.175,220.506H27.993c1.89-34.933,4.1-70.081,5.573-105.269.893-21.247.281-42.576.974-63.848C35.434,104.5,37.434,77.217,38,49.894c.273-13.117,7.485-19.8,16.5-20.241,20.374-1,40.858.618,61.291,1.517,8.932.388,13.516,7.066,15.45,16.028q13.1,60.76,25.888,121.61c3.277,15.682,5.994,31.52,9.08,47.267.288,1.468,1.343,2.754,2.045,4.122l2.709-.742" transform="translate(143.973 141.029)" fill="#fff" stroke="#707070" stroke-width="1"/>
    </g>
  </g>
</svg>
